                    <svg
                      width="20"
                      height="20"
                      viewBox="0 0 20 20"
                      fill="#a5a3a3"
                      xmlns="http://www.w3.org/2000/svg"
                    >
                      <path
                        d="M10 1.7002C5.41669 1.7002 1.66669 5.44186 1.66669 10.0502C1.66669 14.2169 4.71669 17.6752 8.70002 18.3002V12.4669H6.58335V10.0502H8.70002V8.20853C8.70002 6.11686 9.94169 4.96686 11.85 4.96686C12.7584 4.96686 13.7084 5.1252 13.7084 5.1252V7.18353H12.6584C11.625 7.18353 11.3 7.8252 11.3 8.48353V10.0502H13.6167L13.2417 12.4669H11.3V18.3002C13.2637 17.9901 15.0519 16.9881 16.3416 15.4752C17.6314 13.9624 18.3378 12.0382 18.3334 10.0502C18.3334 5.44186 14.5834 1.7002 10 1.7002Z"
                      />
                    </svg>