            <svg
              width="170"
              height="198"
              viewBox="0 0 170 198"
              fill="none"
              xmlns="http://www.w3.org/2000/svg"
            >
              <path
                fill-rule="evenodd"
                clip-rule="evenodd"
                d="M115.694 166.387C145.356 149.262 155.508 111.348 138.387 81.6936C121.266 52.0388 83.3556 41.8746 53.6936 59C24.046 76.117 13.8788 114.039 31 143.694C48.1212 173.348 86.046 183.504 115.694 166.387Z"
                fill="url(#paint0_radial_100_226)"
              />
              <path
                fill-rule="evenodd"
                clip-rule="evenodd"
                d="M64.6936 109.694C85.686 109.694 102.694 92.6809 102.694 71.6936C102.694 50.7063 85.686 33.6936 64.6936 33.6936C43.7114 33.6936 26.6936 50.7063 26.6936 71.6936C26.6936 92.6809 43.7114 109.694 64.6936 109.694Z"
                fill="url(#paint1_radial_100_226)"
              />
              <circle
                cx="72.1069"
                cy="51.1106"
                r="1.72625"
                transform="rotate(-120 72.1069 51.1106)"
                fill="#8B5CF6"
              />
              <circle
                cx="98.1196"
                cy="36.0928"
                r="1.72625"
                transform="rotate(-120 98.1196 36.0928)"
                fill="#8B5CF6"
              />
              <circle
                cx="59.5491"
                cy="58.3611"
                r="1.72625"
                transform="rotate(-120 59.5491 58.3611)"
                fill="#8B5CF6"
              />
              <circle
                cx="84.9638"
                cy="43.688"
                r="1.72625"
                transform="rotate(-120 84.9638 43.688)"
                fill="#8B5CF6"
              />
              <circle
                cx="110.976"
                cy="28.6695"
                r="1.72625"
                transform="rotate(-120 110.976 28.6695)"
                fill="#8B5CF6"
              />
              <circle
                cx="87.1254"
                cy="77.1236"
                r="1.72625"
                transform="rotate(-120 87.1254 77.1236)"
                fill="#8B5CF6"
              />
              <circle
                cx="64.5115"
                cy="37.9551"
                r="1.72625"
                transform="rotate(-120 64.5115 37.9551)"
                fill="#8B5CF6"
              />
              <circle
                cx="113.138"
                cy="62.1053"
                r="1.72625"
                transform="rotate(-120 113.138 62.1053)"
                fill="#8B5CF6"
              />
              <circle
                cx="90.5241"
                cy="22.9371"
                r="1.72625"
                transform="rotate(-120 90.5241 22.9371)"
                fill="#8B5CF6"
              />
              <circle
                cx="74.5676"
                cy="84.3741"
                r="1.72625"
                transform="rotate(-120 74.5676 84.3741)"
                fill="#8B5CF6"
              />
              <circle
                cx="51.9537"
                cy="45.2054"
                r="1.72625"
                transform="rotate(-120 51.9537 45.2054)"
                fill="#8B5CF6"
              />
              <circle
                cx="99.9822"
                cy="69.7005"
                r="1.72625"
                transform="rotate(-120 99.9822 69.7005)"
                fill="#8B5CF6"
              />
              <circle
                cx="77.3682"
                cy="30.5323"
                r="1.72625"
                transform="rotate(-120 77.3682 30.5323)"
                fill="#8B5CF6"
              />
              <circle
                cx="125.995"
                cy="54.6824"
                r="1.72625"
                transform="rotate(-120 125.995 54.6824)"
                fill="#8B5CF6"
              />
              <circle
                cx="103.381"
                cy="15.514"
                r="1.72625"
                transform="rotate(-120 103.381 15.514)"
                fill="#8B5CF6"
              />
              <circle
                cx="79.5299"
                cy="63.9678"
                r="1.72625"
                transform="rotate(-120 79.5299 63.9678)"
                fill="#8B5CF6"
              />
              <circle
                cx="56.916"
                cy="24.7994"
                r="1.72625"
                transform="rotate(-120 56.916 24.7994)"
                fill="#8B5CF6"
              />
              <circle
                cx="105.543"
                cy="48.9498"
                r="1.72625"
                transform="rotate(-120 105.543 48.9498)"
                fill="#8B5CF6"
              />
              <circle
                cx="82.9287"
                cy="9.78106"
                r="1.72625"
                transform="rotate(-120 82.9287 9.78106)"
                fill="#8B5CF6"
              />
              <circle
                cx="66.9722"
                cy="71.2183"
                r="1.72625"
                transform="rotate(-120 66.9722 71.2183)"
                fill="#8B5CF6"
              />
              <circle
                cx="44.3583"
                cy="32.0499"
                r="1.72625"
                transform="rotate(-120 44.3583 32.0499)"
                fill="#8B5CF6"
              />
              <circle
                cx="92.3868"
                cy="56.5452"
                r="1.72625"
                transform="rotate(-120 92.3868 56.5452)"
                fill="#8B5CF6"
              />
              <circle
                cx="69.7728"
                cy="17.3768"
                r="1.72625"
                transform="rotate(-120 69.7728 17.3768)"
                fill="#8B5CF6"
              />
              <circle
                cx="118.399"
                cy="41.5267"
                r="1.72625"
                transform="rotate(-120 118.399 41.5267)"
                fill="#8B5CF6"
              />
              <circle
                cx="95.7854"
                cy="2.35821"
                r="1.72625"
                transform="rotate(-120 95.7854 2.35821)"
                fill="#8B5CF6"
              />
              <defs>
                <radialGradient
                  id="paint0_radial_100_226"
                  cx="0"
                  cy="0"
                  r="1"
                  gradientUnits="userSpaceOnUse"
                  gradientTransform="translate(53.6936 59) rotate(60) scale(124)"
                >
                  <stop stop-color="white" />
                  <stop offset="0.569" stop-color="#FFEEFE" />
                  <stop offset="0.993" stop-color="#F1C6EF" />
                </radialGradient>
                <radialGradient
                  id="paint1_radial_100_226"
                  cx="0"
                  cy="0"
                  r="1"
                  gradientUnits="userSpaceOnUse"
                  gradientTransform="translate(64.6936 33.6936) rotate(90) scale(76)"
                >
                  <stop stop-color="white" />
                  <stop offset="0.569" stop-color="#E4F2FE" />
                  <stop offset="0.993" stop-color="#D2E2EF" />
                </radialGradient>
              </defs>
            </svg>