            <svg
              width="170"
              height="183"
              viewBox="0 0 170 183"
              fill="none"
              xmlns="http://www.w3.org/2000/svg"
            >
              <path
                fill-rule="evenodd"
                clip-rule="evenodd"
                d="M116 138.694C145.662 121.568 155.815 83.655 138.694 54.0002C121.572 24.3454 83.662 14.1812 54 31.3066C24.3524 48.4237 14.1852 86.3454 31.3064 116C48.4276 145.655 86.3524 155.811 116 138.694Z"
                fill="url(#paint0_radial_100_227)"
              />
              <path
                fill-rule="evenodd"
                clip-rule="evenodd"
                d="M54 84C74.9924 84 92 66.9873 92 46C92 25.0127 74.9924 8 54 8C33.0178 8 16 25.0127 16 46C16 66.9873 33.0178 84 54 84Z"
                fill="url(#paint1_radial_100_227)"
              />
              <circle
                cx="95.3482"
                cy="146.68"
                r="1.72625"
                transform="rotate(-120 95.3482 146.68)"
                fill="#8B5CF6"
              />
              <circle
                cx="121.361"
                cy="131.663"
                r="1.72625"
                transform="rotate(-120 121.361 131.663)"
                fill="#8B5CF6"
              />
              <circle
                cx="82.7904"
                cy="153.931"
                r="1.72625"
                transform="rotate(-120 82.7904 153.931)"
                fill="#8B5CF6"
              />
              <circle
                cx="108.205"
                cy="139.258"
                r="1.72625"
                transform="rotate(-120 108.205 139.258)"
                fill="#8B5CF6"
              />
              <circle
                cx="134.218"
                cy="124.239"
                r="1.72625"
                transform="rotate(-120 134.218 124.239)"
                fill="#8B5CF6"
              />
              <circle
                cx="110.367"
                cy="172.693"
                r="1.72625"
                transform="rotate(-120 110.367 172.693)"
                fill="#8B5CF6"
              />
              <circle
                cx="87.7528"
                cy="133.525"
                r="1.72625"
                transform="rotate(-120 87.7528 133.525)"
                fill="#8B5CF6"
              />
              <circle
                cx="136.379"
                cy="157.675"
                r="1.72625"
                transform="rotate(-120 136.379 157.675)"
                fill="#8B5CF6"
              />
              <circle
                cx="113.765"
                cy="118.507"
                r="1.72625"
                transform="rotate(-120 113.765 118.507)"
                fill="#8B5CF6"
              />
              <circle
                cx="97.8089"
                cy="179.944"
                r="1.72625"
                transform="rotate(-120 97.8089 179.944)"
                fill="#8B5CF6"
              />
              <circle
                cx="75.195"
                cy="140.775"
                r="1.72625"
                transform="rotate(-120 75.195 140.775)"
                fill="#8B5CF6"
              />
              <circle
                cx="123.223"
                cy="165.27"
                r="1.72625"
                transform="rotate(-120 123.223 165.27)"
                fill="#8B5CF6"
              />
              <circle
                cx="100.61"
                cy="126.102"
                r="1.72625"
                transform="rotate(-120 100.61 126.102)"
                fill="#8B5CF6"
              />
              <circle
                cx="149.236"
                cy="150.252"
                r="1.72625"
                transform="rotate(-120 149.236 150.252)"
                fill="#8B5CF6"
              />
              <circle
                cx="126.622"
                cy="111.084"
                r="1.72625"
                transform="rotate(-120 126.622 111.084)"
                fill="#8B5CF6"
              />
              <circle
                cx="102.771"
                cy="159.538"
                r="1.72625"
                transform="rotate(-120 102.771 159.538)"
                fill="#8B5CF6"
              />
              <circle
                cx="80.1573"
                cy="120.369"
                r="1.72625"
                transform="rotate(-120 80.1573 120.369)"
                fill="#8B5CF6"
              />
              <circle
                cx="128.784"
                cy="144.52"
                r="1.72625"
                transform="rotate(-120 128.784 144.52)"
                fill="#8B5CF6"
              />
              <circle
                cx="106.17"
                cy="105.351"
                r="1.72625"
                transform="rotate(-120 106.17 105.351)"
                fill="#8B5CF6"
              />
              <circle
                cx="90.2135"
                cy="166.788"
                r="1.72625"
                transform="rotate(-120 90.2135 166.788)"
                fill="#8B5CF6"
              />
              <circle
                cx="67.5996"
                cy="127.62"
                r="1.72625"
                transform="rotate(-120 67.5996 127.62)"
                fill="#8B5CF6"
              />
              <circle
                cx="115.628"
                cy="152.115"
                r="1.72625"
                transform="rotate(-120 115.628 152.115)"
                fill="#8B5CF6"
              />
              <circle
                cx="93.0141"
                cy="112.947"
                r="1.72625"
                transform="rotate(-120 93.0141 112.947)"
                fill="#8B5CF6"
              />
              <circle
                cx="141.641"
                cy="137.096"
                r="1.72625"
                transform="rotate(-120 141.641 137.096)"
                fill="#8B5CF6"
              />
              <circle
                cx="119.027"
                cy="97.928"
                r="1.72625"
                transform="rotate(-120 119.027 97.928)"
                fill="#8B5CF6"
              />
              <defs>
                <radialGradient
                  id="paint0_radial_100_227"
                  cx="0"
                  cy="0"
                  r="1"
                  gradientUnits="userSpaceOnUse"
                  gradientTransform="translate(54 31.3066) rotate(60) scale(124)"
                >
                  <stop stop-color="white" />
                  <stop offset="0.569" stop-color="#FFEEFE" />
                  <stop offset="0.993" stop-color="#F1C6EF" />
                </radialGradient>
                <radialGradient
                  id="paint1_radial_100_227"
                  cx="0"
                  cy="0"
                  r="1"
                  gradientUnits="userSpaceOnUse"
                  gradientTransform="translate(54 8) rotate(90) scale(76)"
                >
                  <stop stop-color="white" />
                  <stop offset="0.569" stop-color="#E4F2FE" />
                  <stop offset="0.993" stop-color="#D2E2EF" />
                </radialGradient>
              </defs>
            </svg>