<?xml version="1.0" encoding="utf-8"?>
<!-- Generator: Adobe Illustrator 18.0.0, SVG Export Plug-In . SVG Version: 6.00 Build 0)  -->
<!DOCTYPE svg PUBLIC "-//W3C//DTD SVG 1.1//EN" "http://www.w3.org/Graphics/SVG/1.1/DTD/svg11.dtd">
<svg version="1.1" id="Layer_1" xmlns="http://www.w3.org/2000/svg" xmlns:xlink="http://www.w3.org/1999/xlink" x="0px" y="0px"
	 viewBox="0 0 1586.9 196.5" enable-background="new 0 0 1586.9 196.5" xml:space="preserve">
<linearGradient id="SVGID_1_" gradientUnits="userSpaceOnUse" x1="802.5264" y1="80.3371" x2="797.3304" y2="184.9941">
	<stop  offset="6.557240e-002" style="stop-color:#F6F4FE"/>
	<stop  offset="0.908" style="stop-color:#D0C5FD"/>
</linearGradient>
<path fill="url(#SVGID_1_)" d="M1340.7,176.8c-0.5-0.3-0.9-1-1.4-1c-2.5-0.1-5,0.1-7.5-0.1c-6.7-0.3-13.5-0.3-20.2-1.1
	c-6.7-0.8-13.3-1.4-20-2c-6.1-0.6-12.1-2-18.2-2.9c-5.3-0.8-10.7-1.2-16-2.1c-7-1.2-14-2.4-20.9-4c-9.1-2.1-18.1-4.6-27.1-6.9
	c-3.6-0.9-7.1-2-10.7-3c-12.1-3.2-24.1-6.9-36.2-10.3c-11.8-3.3-23.6-6.4-35.4-9.5c-11.2-3-22.7-4.9-34-7.3
	c-7.7-1.6-15.4-3.4-23.2-4.9c-4.9-0.9-10-1.8-15-1.9c-1.9-0.1-2.6-2.4-4.7-1.5c-1.6,0.7-3.4,0.2-5.2-0.4c-2.6-0.9-5.4-0.9-8.2-1.2
	c-3.7-0.4-7.7,0-11.2-1.2c-4-1.4-8.3,0.3-12-1.8c-0.1-0.1-0.3,0-0.5,0c-4.9-0.3-9.8-0.6-14.7-1c-2.9-0.2-5.8-0.7-8.7-1
	c-2.8-0.2-5.6,0.5-8.2-1c-0.4-0.2-1,0-1.5,0c-14.2-0.5-28.5-1.4-42.7-1.1c-3.4,0.1-6.9-1.2-10.2-0.8c-12.6,1.6-25.2,0.4-37.7,1
	c-2.5,0.1-4.9,0.1-7.4,0.3c-2.6,0.1-5.2,0.3-7.8,0.7c-7.4,1.1-15,1.3-22.4,2.2c-3.6,0.5-7.4,0.3-11,1.6c-2.6,0.9-5.8,0.6-8.7,1
	c-6.6,1-13.1,2.1-19.7,3.1c-6.4,1-13,1.3-19.4,2.1c-2.9,0.4-5.7,1-8.5,1.7c-2.9,0.7-5.8,0-8.7,1c-3.1,1.1-6.8,0.8-10.2,1.2
	c-1.9,0.2-3.8,0.7-5.7,1c-1.9,0.2-3.8,0.2-5.8,0.8c-2.9,0.9-6.1,0.3-9.2,1.1c-3.8,0.9-7.8,0.7-11.7,1.2c-1.9,0.2-3.8,0.6-5.7,1
	c-1.7,0.3-3.5,0.6-5.2,0.9c-0.7,0.1-1.3,0.1-2,0.1c-5.2,0-10.3,1.1-15.5,1.9c-4.5,0.7-9.1,0.8-13.7,1.1c-5.4,0.3-10.7,0.9-16,1.9
	c-3.2,0.6-6.5,0.3-9.7,0.9c-4.8,1-9.9,0.3-14.7,1.3c-4.8,1-9.8-0.1-14.5,1.8c-0.3,0.1-0.7,0-1,0c-5.6,0.3-11.2,0.2-16.7,1.1
	c-5.2,0.9-10.5,0-15.5,1.8c-0.3,0.1-0.7,0-1,0c-6.7,0.3-13.5,0.6-20.2,1c-3.1,0.2-6.2,0.7-9.2,1c-2.9,0.3-6-0.6-8.7,1
	c-0.3,0.1-0.7,0-1,0c-8.2,0.3-16.5,0.3-24.7,1.1c-6.1,0.6-12.3,0.1-18.2,1.1c-5.6,0.9-11.2,0.2-16.8,0.9c-8.7,1.1-17.5,0.2-26.2,1.1
	c-17.6,1.7-35.2,0.4-52.7,0.8c-9.7,0.2-19.3,0.2-29,0c-10.9-0.2-21.9-0.2-32.7-1.2c-4.9-0.4-9.9-0.4-14.7-0.9
	c-7.6-0.8-15.3-1.5-23-2.1c-6.2-0.5-12.3-1.2-18.5-2c-6.1-0.8-12.3-1-18.3-2.7c-3.2-0.9-6.8-0.7-10.2-1.2c-4.8-0.7-9.6-1.4-14.4-2.3
	c-4.4-0.8-8.8-1.8-13.3-2.7c-6.9-1.4-13.9-2.7-20.8-4.4c-7.4-1.7-14.7-3.7-22-5.6c-12.3-3.3-24.5-6.7-36.3-11.5
	c-9.9-4-19.9-7.5-29.6-11.9C133,98.7,125.4,94,117.4,90c-7.3-3.7-14-8.1-20.7-12.8c-5.9-4.1-11.9-8-17.1-13.1
	c-3.1-3-6.4-5.7-9.5-8.6c-7.2-6.8-14-14-19.3-22.9c1.8-1.6,3.3-3.9,6.4-2.1c0.4,0.2,0.9,0.3,1.4,0.3c7.1,0.3,14.1,0.7,21.2,1
	c6.4,0.3,12.8,0.8,19.2,1.2c4.1,0.3,8.2,0.1,12.2,0.8c5.6,1,11.3,0.2,16.7,1.1c4.3,0.7,8.6,0.2,12.7,0.9c5.4,1,10.9,0.2,16.2,1.1
	c4.6,0.8,9.4-0.1,13.7,1c6.2,1.6,12.5-0.4,18.5,1.8c0.3,0.1,0.7,0,1,0c7.7,0.3,15.5,0.2,23.2,1.1c5.6,0.7,11.2,0.2,16.7,1.1
	c4.1,0.7,8.2,0.2,12.2,0.9c5.6,1,11.2,0.2,16.7,1.1c4.1,0.7,8.2,0.2,12.2,0.9c5.6,1,11.3,0.2,16.7,1.1c4.3,0.7,8.6,0.2,12.7,0.9
	c5.4,1,10.9,0.2,16.2,1.1c4.6,0.8,9.4-0.1,13.7,1c6.2,1.5,12.5-0.4,18.5,1.8c0.3,0.1,0.7,0,1,0c7.7,0.3,15.5,0.2,23.2,1.1
	c5.6,0.7,11.2,0.2,16.7,1.1c4.1,0.7,8.2,0.2,12.2,0.9c5.6,1,11.3,0.2,16.7,1.1c4.3,0.7,8.6,0.2,12.7,0.9c5.4,1,10.9,0.2,16.2,1.1
	c4.3,0.7,8.6,0.2,12.7,0.9c5.4,1,10.9,0.2,16.2,1.1c4.6,0.8,9.4-0.1,13.7,1c6.2,1.5,12.5-0.4,18.5,1.8c0.3,0.1,0.7,0,1,0
	c7.7,0.3,15.5,0.2,23.2,1.1c5.6,0.7,11.2,0.2,16.7,1.1c4.1,0.7,8.2,0.2,12.2,0.9c5.6,1,11.3,0.2,16.7,1.1c4.3,0.7,8.6,0.2,12.7,0.9
	c5.4,1,10.9,0.2,16.2,1.1c4.3,0.7,8.6,0.2,12.7,0.9c5.4,1,10.9,0.2,16.2,1.1c4.6,0.8,9.4-0.1,13.7,1c6.2,1.5,12.5-0.4,18.5,1.8
	c0.3,0.1,0.7,0,1,0c7.7,0.3,15.5,0.2,23.2,1.1c5.6,0.7,11.2,0.2,16.7,1.1c4.1,0.7,8.2,0.2,12.2,0.9c5.6,1,11.3,0.2,16.7,1.1
	c4.3,0.7,8.6,0.2,12.7,0.9c5.4,1,10.9,0.2,16.2,1.1c4.3,0.7,8.6,0.2,12.7,0.9c5.4,1,10.9,0.2,16.2,1.1c4.6,0.8,9.3-0.1,13.7,1
	c6.2,1.5,12.5-0.4,18.5,1.8c0.3,0.1,0.7,0,1,0c7.7,0.3,15.5,0.2,23.2,1.1c5.6,0.7,11.2,0.2,16.7,1.1c4.1,0.7,8.2,0.2,12.2,0.9
	c5.6,1,11.3,0.2,16.7,1.1c4.3,0.7,8.6,0.2,12.7,0.9c5.4,1,10.9,0.2,16.2,1.1c4.3,0.7,8.6,0.2,12.7,0.9c5.4,1,10.9,0.2,16.2,1.1
	c4.6,0.8,9.3-0.1,13.7,1c6.2,1.5,12.5-0.4,18.5,1.8c0.3,0.1,0.7,0,1,0c7.7,0.3,15.5,0.2,23.2,1.1c5.6,0.7,11.2,0.2,16.7,1.1
	c4.1,0.7,8.2,0.2,12.2,0.9c5.6,1,11.3,0.2,16.7,1.1c4.3,0.7,8.6,0.2,12.7,0.9c5.4,1,10.9,0.2,16.2,1.1c4.3,0.7,8.6,0.2,12.7,0.9
	c5.4,1,10.9,0.2,16.2,1.1c4.6,0.8,9.4-0.1,13.7,1c6.2,1.5,12.5-0.4,18.5,1.8c0.3,0.1,0.7,0,1,0c7.7,0.3,15.5,0.2,23.2,1.1
	c5.6,0.7,11.2,0.2,16.7,1.1c4.1,0.7,8.2,0.2,12.2,0.9c5.6,1,11.3,0.2,16.7,1.1c4.3,0.7,8.6,0.2,12.7,0.9c5.4,1,10.9,0.2,16.2,1.1
	c4.3,0.7,8.6,0.2,12.7,0.9c5.4,1,10.9,0.2,16.2,1.1c4.6,0.8,9.4-0.1,13.7,1c6.2,1.5,12.5-0.4,18.5,1.8c0.3,0.1,0.7,0,1,0
	c7.7,0.3,15.5,0.2,23.2,1.1c5.6,0.7,11.2,0.2,16.7,1.1c4.1,0.7,8.2,0.2,12.2,0.9c5.6,1,11.3,0.2,16.7,1.1c4.3,0.7,8.6,0.2,12.7,0.9
	c5.4,1,10.9,0.2,16.2,1.1c4.3,0.7,8.6,0.2,12.7,0.9c5.4,1,10.9,0.2,16.2,1.1c4.6,0.8,9.4-0.1,13.7,1c6.2,1.5,12.5-0.4,18.5,1.8
	c0.3,0.1,0.7,0,1,0c7.7,0.3,15.5,0.2,23.2,1.1c5.6,0.7,11.2,0.2,16.7,1.1c4.1,0.7,8.2,0.2,12.2,0.9c5.6,1,11.2,0.4,16.7,1.1
	c3.3,0.4,6.5,0.9,9.7,0.8c2.5-0.1,4,1,5.2,3.4c-1.2,0.8-2.3,1.7-3.5,2.4c-8.1,5.1-16.4,9.8-25.2,13.6c-8.8,3.8-17.7,6.9-26.8,9.7
	c-7.7,2.4-15.4,4.5-23.3,6.1c-6.2,1.2-12.4,2.1-18.7,3c-5.3,0.7-10.6,1.4-16,2c-6.7,0.8-13.3,1.3-20,2.1c-6.5,0.8-12.8,0.6-19.3,0.8
	c-0.5,0-1,0.6-1.4,1C1380,176.8,1360.4,176.8,1340.7,176.8z"/>
</svg>
